<?xml version="1.0" encoding="utf-8"?>
<!-- Generator: Adobe Illustrator 16.0.0, SVG Export Plug-In . SVG Version: 6.00 Build 0)  -->
<!DOCTYPE svg PUBLIC "-//W3C//DTD SVG 1.1//EN" "http://www.w3.org/Graphics/SVG/1.1/DTD/svg11.dtd">
<svg version="1.1" xmlns="http://www.w3.org/2000/svg" xmlns:xlink="http://www.w3.org/1999/xlink" x="0px" y="0px"
	 width="77.814px" height="94.176px" viewBox="0 0 77.814 94.176" enable-background="new 0 0 77.814 94.176" xml:space="preserve">
<radialGradient id="SVGID_1_" cx="-658.5698" cy="752.7803" r="42.342" gradientTransform="matrix(0.315 0 0 0.315 261.8402 -176.1464)" gradientUnits="userSpaceOnUse">
	<stop  offset="0" style="stop-color:#FFFFFF"/>
	<stop  offset="1" style="stop-color:#004062"/>
</radialGradient>
<path fill="url(#SVGID_1_)" stroke="#FFFFFF" stroke-width="0.8299" d="M54.389,47.658c-7.36,0-13.32,5.964-13.32,13.319
	c0,7.357,5.96,13.324,13.32,13.324c7.363,0,13.323-5.967,13.323-13.324C67.712,53.622,61.752,47.658,54.389,47.658z"/>
<radialGradient id="SVGID_2_" cx="-717.1685" cy="634.708" r="27.5422" gradientTransform="matrix(0.315 0 0 0.315 261.8402 -176.1464)" gradientUnits="userSpaceOnUse">
	<stop  offset="0" style="stop-color:#FFFFFF"/>
	<stop  offset="1" style="stop-color:#004062"/>
</radialGradient>
<path fill="url(#SVGID_2_)" stroke="#FFFFFF" stroke-width="0.5393" d="M35.937,15.127c-4.782,0-8.666,3.878-8.666,8.66
	c0,4.783,3.884,8.659,8.666,8.659c4.773,0,8.656-3.875,8.656-8.659C44.593,19.005,40.71,15.127,35.937,15.127z"/>
<radialGradient id="SVGID_3_" cx="-730.0146" cy="618.4023" r="45.4654" gradientTransform="matrix(0.315 0 0 0.315 261.8402 -176.1464)" gradientUnits="userSpaceOnUse">
	<stop  offset="0" style="stop-color:#FFFFFF"/>
	<stop  offset="0.045" style="stop-color:#EBF3F7"/>
	<stop  offset="0.1982" style="stop-color:#AECCDD"/>
	<stop  offset="0.3503" style="stop-color:#79AAC7"/>
	<stop  offset="0.4975" style="stop-color:#4D8FB5"/>
	<stop  offset="0.6389" style="stop-color:#2C7AA6"/>
	<stop  offset="0.7729" style="stop-color:#146A9C"/>
	<stop  offset="0.8965" style="stop-color:#056196"/>
	<stop  offset="1" style="stop-color:#005E94"/>
</radialGradient>
<path fill="url(#SVGID_3_)" stroke="#FFFFFF" stroke-width="0.8299" d="M36.072,14.398c-4.961,0-8.988,4.022-8.988,8.989
	c0,4.964,4.027,8.988,8.988,8.988s8.99-4.024,8.99-8.988C45.062,18.421,41.033,14.398,36.072,14.398z"/>
<radialGradient id="SVGID_4_" cx="-789.3477" cy="728.9697" r="43.3105" gradientTransform="matrix(0.315 0 0 0.315 261.8402 -176.1464)" gradientUnits="userSpaceOnUse">
	<stop  offset="0" style="stop-color:#FFFFFF"/>
	<stop  offset="0.045" style="stop-color:#EBF3F7"/>
	<stop  offset="0.1982" style="stop-color:#AECCDD"/>
	<stop  offset="0.3503" style="stop-color:#79AAC7"/>
	<stop  offset="0.4975" style="stop-color:#4D8FB5"/>
	<stop  offset="0.6389" style="stop-color:#2C7AA6"/>
	<stop  offset="0.7729" style="stop-color:#146A9C"/>
	<stop  offset="0.8965" style="stop-color:#056196"/>
	<stop  offset="1" style="stop-color:#005E94"/>
</radialGradient>
<path fill="url(#SVGID_4_)" stroke="#FFFFFF" stroke-width="0.8299" d="M17.187,49.43c-4.728,0-8.565,3.834-8.565,8.557
	c0,4.73,3.838,8.564,8.565,8.564s8.559-3.834,8.559-8.564C25.746,53.264,21.915,49.43,17.187,49.43z"/>
<radialGradient id="SVGID_5_" cx="-730.312" cy="697.4199" r="67.3958" gradientTransform="matrix(0.315 0 0 0.315 261.8402 -176.1464)" gradientUnits="userSpaceOnUse">
	<stop  offset="0" style="stop-color:#FFFFFF"/>
	<stop  offset="0.045" style="stop-color:#EBF3F7"/>
	<stop  offset="0.1982" style="stop-color:#AECCDD"/>
	<stop  offset="0.3503" style="stop-color:#79AAC7"/>
	<stop  offset="0.4975" style="stop-color:#4D8FB5"/>
	<stop  offset="0.6389" style="stop-color:#2C7AA6"/>
	<stop  offset="0.7729" style="stop-color:#146A9C"/>
	<stop  offset="0.8965" style="stop-color:#056196"/>
	<stop  offset="1" style="stop-color:#005E94"/>
</radialGradient>
<path fill="url(#SVGID_5_)" stroke="#FFFFFF" stroke-width="0.8299" d="M38.013,37.248c-7.361,0-13.329,5.964-13.329,13.32
	s5.968,13.322,13.329,13.322c7.354,0,13.322-5.966,13.322-13.322S45.367,37.248,38.013,37.248z"/>
<radialGradient id="SVGID_6_" cx="-839.8301" cy="708.5645" r="39.3694" gradientTransform="matrix(0.315 0 0 0.315 261.8402 -176.1464)" gradientUnits="userSpaceOnUse">
	<stop  offset="0" style="stop-color:#FFFFFF"/>
	<stop  offset="0.045" style="stop-color:#EBF3F7"/>
	<stop  offset="0.1982" style="stop-color:#AECCDD"/>
	<stop  offset="0.3503" style="stop-color:#79AAC7"/>
	<stop  offset="0.4975" style="stop-color:#4D8FB5"/>
	<stop  offset="0.6389" style="stop-color:#2C7AA6"/>
	<stop  offset="0.7729" style="stop-color:#146A9C"/>
	<stop  offset="0.8965" style="stop-color:#056196"/>
	<stop  offset="1" style="stop-color:#005E94"/>
</radialGradient>
<path fill="url(#SVGID_6_)" stroke="#FFFFFF" stroke-width="0.8299" d="M0.917,43.369c-4.305,0-7.783,3.487-7.783,7.784
	c0,4.296,3.479,7.782,7.783,7.782c4.297,0,7.783-3.486,7.783-7.782C8.701,46.855,5.214,43.369,0.917,43.369z"/>
<radialGradient id="SVGID_7_" cx="-786.5376" cy="823.6113" r="43.3017" gradientTransform="matrix(0.315 0 0 0.315 261.8402 -176.1464)" gradientUnits="userSpaceOnUse">
	<stop  offset="0" style="stop-color:#FFFFFF"/>
	<stop  offset="0.045" style="stop-color:#EBF3F7"/>
	<stop  offset="0.1982" style="stop-color:#AECCDD"/>
	<stop  offset="0.3503" style="stop-color:#79AAC7"/>
	<stop  offset="0.4975" style="stop-color:#4D8FB5"/>
	<stop  offset="0.6389" style="stop-color:#2C7AA6"/>
	<stop  offset="0.7729" style="stop-color:#146A9C"/>
	<stop  offset="0.8965" style="stop-color:#056196"/>
	<stop  offset="1" style="stop-color:#005E94"/>
</radialGradient>
<path fill="url(#SVGID_7_)" stroke="#FFFFFF" stroke-width="0.8299" d="M18.065,79.242c-4.728,0-8.556,3.832-8.556,8.56
	c0,4.729,3.828,8.562,8.556,8.562c4.729,0,8.56-3.833,8.56-8.562C26.625,83.074,22.793,79.242,18.065,79.242z"/>
<radialGradient id="SVGID_8_" cx="-764.4136" cy="562.959" r="39.3719" gradientTransform="matrix(0.315 0 0 0.315 261.8402 -176.1464)" gradientUnits="userSpaceOnUse">
	<stop  offset="0" style="stop-color:#FFFFFF"/>
	<stop  offset="0.045" style="stop-color:#EBF3F7"/>
	<stop  offset="0.1982" style="stop-color:#AECCDD"/>
	<stop  offset="0.3503" style="stop-color:#79AAC7"/>
	<stop  offset="0.4975" style="stop-color:#4D8FB5"/>
	<stop  offset="0.6389" style="stop-color:#2C7AA6"/>
	<stop  offset="0.7729" style="stop-color:#146A9C"/>
	<stop  offset="0.8965" style="stop-color:#056196"/>
	<stop  offset="1" style="stop-color:#005E94"/>
</radialGradient>
<path fill="url(#SVGID_8_)" stroke="#FFFFFF" stroke-width="0.8299" d="M24.675-2.497c-4.306,0-7.785,3.484-7.785,7.782
	c0,4.295,3.479,7.784,7.785,7.784c4.295,0,7.783-3.489,7.783-7.784C32.458,0.987,28.97-2.497,24.675-2.497z"/>
<radialGradient id="SVGID_9_" cx="-665.4487" cy="587.6631" r="41.347" gradientTransform="matrix(0.315 0 0 0.315 261.8402 -176.1464)" gradientUnits="userSpaceOnUse">
	<stop  offset="0" style="stop-color:#FFFFFF"/>
	<stop  offset="0.045" style="stop-color:#EBF3F7"/>
	<stop  offset="0.1982" style="stop-color:#AECCDD"/>
	<stop  offset="0.3503" style="stop-color:#79AAC7"/>
	<stop  offset="0.4975" style="stop-color:#4D8FB5"/>
	<stop  offset="0.6389" style="stop-color:#2C7AA6"/>
	<stop  offset="0.7729" style="stop-color:#146A9C"/>
	<stop  offset="0.8965" style="stop-color:#056196"/>
	<stop  offset="1" style="stop-color:#005E94"/>
</radialGradient>
<path fill="url(#SVGID_9_)" stroke="#FFFFFF" stroke-width="0.8299" d="M56.036,5.102c-4.521,0-8.179,3.658-8.179,8.171
	s3.658,8.173,8.179,8.173c4.505,0,8.17-3.661,8.17-8.173S60.541,5.102,56.036,5.102z"/>
<radialGradient id="SVGID_10_" cx="-605.707" cy="705.6367" r="41.3379" gradientTransform="matrix(0.315 0 0 0.315 261.8402 -176.1464)" gradientUnits="userSpaceOnUse">
	<stop  offset="0" style="stop-color:#FFFFFF"/>
	<stop  offset="0.045" style="stop-color:#EBF3F7"/>
	<stop  offset="0.1982" style="stop-color:#AECCDD"/>
	<stop  offset="0.3503" style="stop-color:#79AAC7"/>
	<stop  offset="0.4975" style="stop-color:#4D8FB5"/>
	<stop  offset="0.6389" style="stop-color:#2C7AA6"/>
	<stop  offset="0.7729" style="stop-color:#146A9C"/>
	<stop  offset="0.8965" style="stop-color:#056196"/>
	<stop  offset="1" style="stop-color:#005E94"/>
</radialGradient>
<circle fill="url(#SVGID_10_)" stroke="#FFFFFF" stroke-width="0.8299" cx="74.849" cy="50.436" r="8.173"/>
<radialGradient id="SVGID_11_" cx="-683.4014" cy="642.4775" r="59.4462" gradientTransform="matrix(0.315 0 0 0.315 261.8402 -176.1464)" gradientUnits="userSpaceOnUse">
	<stop  offset="0" style="stop-color:#FFFFFF"/>
	<stop  offset="0.045" style="stop-color:#EBF3F7"/>
	<stop  offset="0.1982" style="stop-color:#AECCDD"/>
	<stop  offset="0.3503" style="stop-color:#79AAC7"/>
	<stop  offset="0.4975" style="stop-color:#4D8FB5"/>
	<stop  offset="0.6389" style="stop-color:#2C7AA6"/>
	<stop  offset="0.7729" style="stop-color:#146A9C"/>
	<stop  offset="0.8965" style="stop-color:#056196"/>
	<stop  offset="1" style="stop-color:#005E94"/>
</radialGradient>
<path fill="url(#SVGID_11_)" stroke="#FFFFFF" stroke-width="0.8299" d="M52.054,20.681c-6.489,0-11.757,5.259-11.757,11.751
	c0,6.489,5.268,11.75,11.757,11.75c6.48,0,11.748-5.261,11.748-11.75C63.802,25.94,58.535,20.681,52.054,20.681z"/>
<radialGradient id="SVGID_12_" cx="-674.1216" cy="790.1367" r="45.4711" gradientTransform="matrix(0.315 0 0 0.315 261.8402 -176.1464)" gradientUnits="userSpaceOnUse">
	<stop  offset="0" style="stop-color:#FFFFFF"/>
	<stop  offset="0.045" style="stop-color:#EBF3F7"/>
	<stop  offset="0.1982" style="stop-color:#AECCDD"/>
	<stop  offset="0.3503" style="stop-color:#79AAC7"/>
	<stop  offset="0.4975" style="stop-color:#4D8FB5"/>
	<stop  offset="0.6389" style="stop-color:#2C7AA6"/>
	<stop  offset="0.7729" style="stop-color:#146A9C"/>
	<stop  offset="0.8965" style="stop-color:#056196"/>
	<stop  offset="1" style="stop-color:#005E94"/>
</radialGradient>
<path fill="url(#SVGID_12_)" stroke="#FFFFFF" stroke-width="0.8299" d="M53.68,68.497c-4.97,0-8.988,4.027-8.988,8.986
	c0,4.966,4.019,8.992,8.988,8.992c4.962,0,8.989-4.025,8.989-8.992C62.669,72.523,58.642,68.497,53.68,68.497z"/>
<radialGradient id="SVGID_13_" cx="-743.7031" cy="765.3643" r="67.3888" gradientTransform="matrix(0.315 0 0 0.315 261.8402 -176.1464)" gradientUnits="userSpaceOnUse">
	<stop  offset="0" style="stop-color:#FFFFFF"/>
	<stop  offset="0.045" style="stop-color:#EBF3F7"/>
	<stop  offset="0.1982" style="stop-color:#AECCDD"/>
	<stop  offset="0.3503" style="stop-color:#79AAC7"/>
	<stop  offset="0.4975" style="stop-color:#4D8FB5"/>
	<stop  offset="0.6389" style="stop-color:#2C7AA6"/>
	<stop  offset="0.7729" style="stop-color:#146A9C"/>
	<stop  offset="0.8965" style="stop-color:#056196"/>
	<stop  offset="1" style="stop-color:#005E94"/>
</radialGradient>
<path fill="url(#SVGID_13_)" stroke="#FFFFFF" stroke-width="0.8299" d="M33.79,58.65c-7.354,0-13.321,5.965-13.321,13.321
	c0,7.356,5.968,13.321,13.321,13.321c7.36,0,13.32-5.964,13.32-13.321C47.11,64.616,41.15,58.65,33.79,58.65z"/>
<radialGradient id="SVGID_14_" cx="-677.897" cy="731.0205" r="67.4" gradientTransform="matrix(0.315 0 0 0.315 261.8402 -176.1464)" gradientUnits="userSpaceOnUse">
	<stop  offset="0" style="stop-color:#FFFFFF"/>
	<stop  offset="0.045" style="stop-color:#EBF3F7"/>
	<stop  offset="0.1982" style="stop-color:#AECCDD"/>
	<stop  offset="0.3503" style="stop-color:#79AAC7"/>
	<stop  offset="0.4975" style="stop-color:#4D8FB5"/>
	<stop  offset="0.6389" style="stop-color:#2C7AA6"/>
	<stop  offset="0.7729" style="stop-color:#146A9C"/>
	<stop  offset="0.8965" style="stop-color:#056196"/>
	<stop  offset="1" style="stop-color:#005E94"/>
</radialGradient>
<path fill="url(#SVGID_14_)" stroke="#FFFFFF" stroke-width="0.8299" d="M54.526,47.833c-7.362,0-13.331,5.963-13.331,13.323
	c0,7.355,5.969,13.318,13.331,13.318c7.354,0,13.32-5.963,13.32-13.318C67.846,53.796,61.879,47.833,54.526,47.833z"/>
<radialGradient id="SVGID_15_" cx="-769.5283" cy="664.8828" r="67.3822" gradientTransform="matrix(0.315 0 0 0.315 261.8402 -176.1464)" gradientUnits="userSpaceOnUse">
	<stop  offset="0" style="stop-color:#FFFFFF"/>
	<stop  offset="0.045" style="stop-color:#EBF3F7"/>
	<stop  offset="0.1982" style="stop-color:#AECCDD"/>
	<stop  offset="0.3503" style="stop-color:#79AAC7"/>
	<stop  offset="0.4975" style="stop-color:#4D8FB5"/>
	<stop  offset="0.6389" style="stop-color:#2C7AA6"/>
	<stop  offset="0.7729" style="stop-color:#146A9C"/>
	<stop  offset="0.8965" style="stop-color:#056196"/>
	<stop  offset="1" style="stop-color:#005E94"/>
</radialGradient>
<path fill="url(#SVGID_15_)" stroke="#FFFFFF" stroke-width="0.8299" d="M25.663,26.999c-7.36,0-13.329,5.966-13.329,13.321
	c0,7.358,5.969,13.321,13.329,13.321c7.353,0,13.313-5.962,13.313-13.321C38.975,32.965,33.015,26.999,25.663,26.999z"/>
</svg>
